<?xml version="1.0" encoding="utf-8"?>
<svg xmlns="http://www.w3.org/2000/svg" viewBox="0 0 500 500" xmlns:bx="https://boxy-svg.com" width="500px" height="500px"><defs><bx:export><bx:file format="svg" path="Sem título.svg"/></bx:export></defs><g transform="matrix(1, 0, 0, 1, 0.000008, 0)"><g transform="matrix(0.559134, 0, 0, 0.559134, -36.276631, -36.276624)" id="object-2" style=""><g fill="#f9f8f7" transform="matrix(1.156541, 0, 0, 1.156541, -77.384727, -72.457397)" style="" id="object-1"><path d="M 491.5 838.4 c -1.6 -0.2 -7.3 -0.9 -12.5 -1.5 -71.8 -8.2 -141 -51.1 -182.1 -112.7 -4.8 -7.4 -11.4 -18.5 -14.6 -24.7 -5.8 -11.4 -5.8 -11.4 -12.2 -12.5 -7.4 -1.3 -12.6 -3.7 -16.1 -7.5 -2.4 -2.5 -2.5 -3.3 -2.6 -14.3 0 -7.7 -0.6 -14.3 -1.8 -19.2 -1.3 -5.3 -1.8 -11.4 -1.8 -20.5 0 -14.8 1.4 -23.1 6.8 -38.7 2.8 -8 3.8 -12.8 4.5 -21.6 4.6 -60.3 34.6 -115.1 83.2 -152 4.8 -3.7 9 -7.7 9.3 -8.9 0.3 -1.2 -1.1 -7.2 -3.5 -14 -7.1 -21 -10.1 -36.1 -10.1 -51.3 0 -29.1 10.9 -54.1 33.1 -75.7 14.4 -14.1 23.5 -19.7 63.9 -39.7 39.1 -19.3 55.6 -29.7 71.3 -44.8 5.7 -5.5 8.3 -7.4 8.9 -6.6 1.7 2.8 7.1 17.9 10.3 28.8 6.7 23.4 9.5 49.1 7.6 70 -3.9 41.4 -21 74.9 -50.4 98.6 -16.2 13 -33.4 21.9 -60.4 31.3 -24.3 8.5 -51.1 18.9 -56.3 21.9 -10.4 5.9 -26.2 19.4 -37.6 32.2 -17.4 19.4 -31.3 43.5 -39.3 68.1 -3.4 10.4 -7.1 29.1 -5.7 28.6 0.7 -0.3 4.8 -2.8 9.2 -5.7 14.7 -9.7 36 -19.1 67.6 -29.9 11.7 -4 11.7 -4 26 -16.2 24 -20.6 49.1 -38.5 65.4 -46.7 20 -10 39.8 -13.7 86.3 -16.3 24.4 -1.3 81.4 -0.7 96.1 1.1 36.5 4.4 59.6 13.8 79.8 32.5 10.7 10 18.1 19.9 44.5 59.9 6.3 9.6 13 46.4 13.1 72.1 0.1 14.1 -0.1 15.3 -2.4 20 -1.4 2.7 -3 5.1 -3.6 5.2 -0.7 0.2 -1.5 -3.9 -2.3 -11.4 -2.3 -20.9 -7.7 -37.5 -13.9 -42.4 -10.8 -8.4 -22.2 10.6 -27.7 46.1 -4.7 30.5 -5.2 32.3 -9.7 35.2 -1.3 0.8 -19.4 6.3 -40.3 12.2 -20.9 5.9 -39.3 11.1 -40.9 11.7 -5.3 1.7 -5.6 1.4 -3.9 -3.8 0.8 -2.7 1.7 -10.4 2 -17.3 1.2 -26.6 -5.6 -52.3 -17 -64.7 -20 -21.7 -44.4 -0.1 -54.2 48 -2.7 13.4 -4.7 35.7 -3.9 43.3 1.3 12.5 -3.7 14.1 -51.6 16.4 -34.5 1.6 -53.8 1.3 -62.8 -0.9 -6 -1.5 -13 -2 -32.2 -2.5 -22.7 -0.5 -64.1 -3.1 -92.4 -5.6 -6.5 -0.6 -12 -1 -12.2 -0.8 -0.2 0.2 2.6 5.1 6.2 10.8 38 60.9 95.2 99.7 164.9 112 15.5 2.7 43.7 3.7 60 2.1 55.8 -5.6 103.6 -27.9 143.9 -67.1 18.7 -18.2 34.3 -38.8 46.6 -61.4 5.1 -9.6 5.1 -9.6 5.4 -34.3 0.4 -26.1 1.6 -36.8 5.6 -48.8 3 -9 5.8 -12.9 9.7 -13.3 8.1 -0.8 13.6 16.6 13.7 43.3 0 24.9 -2.5 35.3 -14.5 59.5 -39 78.3 -111.8 130.4 -199.9 143 -7.7 1.1 -47.1 2.2 -52.5 1.4 z  m -2.9 -159.4 c 17.4 -1 33.7 -2.5 38.1 -3.6 2.1 -0.6 2.1 -0.7 0.6 -5.7 -1.9 -6.4 -9.4 -20.5 -12.5 -23.4 -3.6 -3.4 -7.2 -4.3 -16.8 -4.3 -15.4 0 -23.7 4.5 -33.4 18.4 -7.3 10.4 -8.4 15.9 -3.6 18.3 3 1.5 5.1 1.6 27.6 0.3 z  m -58.1 -8.2 c 2.2 -3.9 5.5 -9.3 7.3 -12 1.7 -2.7 3.2 -5.1 3.2 -5.2 0 -0.2 -11.8 -0.6 -26.2 -1 -59.5 -1.5 -105.3 -4.4 -124.6 -7.6 -13.8 -2.4 -16.5 -3.2 -25.4 -7.6 -5.4 -2.6 -6.8 -3 -6.8 -1.7 0 2.6 3 13.5 5.6 20.5 2.6 6.8 2.6 6.8 9.6 8.9 14.9 4.4 44.2 9.1 68.8 10.9 21 1.5 23.6 1.6 55.5 1.8 29 0.2 29 0.2 33 -7 z  m 315.9 -9.1 c 6.7 -10.1 6.7 -45.3 0 -50.8 -1.4 -1.2 -1.9 -1 -3.9 1.4 -7.6 8.8 -7.1 51.7 0.6 51.7 1 0 2.5 -1 3.3 -2.3 z  m -336.9 -40.1 c 3.3 -0.8 10.1 -2.3 15.2 -3.5 5.1 -1.1 22.6 -3.7 39 -5.6 52.2 -6.2 64.4 -8.9 72.8 -16.2 8.7 -7.6 17.9 -23.4 17.3 -30 -0.3 -3.8 -0.3 -3.8 -5 -4.1 -2.9 -0.2 -10.6 1.1 -20 3.3 -50.1 11.8 -80.5 16 -124.3 17.2 -34.6 0.9 -84.3 -2.2 -103 -6.4 -7.7 -1.7 -16 -5.1 -20.5 -8.3 -2.9 -2.1 -2.9 -2.1 -4.3 0.7 -2.8 5.5 -12.8 28.5 -12.5 28.8 0.2 0.2 6.1 2.2 13.2 4.5 7.1 2.3 18.5 7.1 25.5 10.6 12.6 6.4 12.6 6.4 26.1 7.4 36.8 2.9 71.7 3.6 80.5 1.6 z  m 227.5 -75.6 c 26.7 -1.7 32.7 -3.7 36.9 -12.2 2.6 -5.6 2.7 -11.4 0.1 -23.8 -3.4 -16.3 -13.5 -46.3 -16.8 -50.2 -1.7 -2.1 -7.6 -2.4 -13.6 -0.7 -11.5 3.2 -26 26.4 -37.5 60.3 -2.8 8 -4.7 14.6 -4.4 14.6 0.3 0 3.6 -1.2 7.4 -2.7 6.1 -2.3 7 -3.1 8 -6.2 1.6 -4.9 9.5 -12.4 14.5 -13.9 5.1 -1.5 17.6 -1.6 22.7 -0.1 5.7 1.6 9.7 5.6 10.4 10.5 0.5 3.7 0.2 4.6 -3 8.1 -4.4 4.8 -8.9 6.3 -18.9 6.3 -9.9 0 -16.5 2.1 -21.9 7 -5.2 4.6 -6.5 4.4 16.1 3 z  m -62.9 -21 c 4.8 -1.4 9.9 -4.9 12.4 -8.6 1.2 -1.7 4.1 -8 6.4 -14 2.4 -6 8.1 -18.6 12.6 -28 8.2 -17.1 8.2 -17.1 0.6 -17.8 -18.1 -1.4 -57.8 -1.8 -78.6 -0.7 -42.8 2.3 -59.2 5.9 -78.7 17.2 -11.8 6.9 -35.1 25.1 -64.1 50.1 -3.2 2.7 -3.2 2.7 91.3 2.8 60.3 0 95.8 -0.4 98.1 -1 z  m 139.4 -4.1 c 9.9 -0.6 18.1 -1.2 18.3 -1.3 0.5 -0.6 -10.2 -17.5 -15.4 -24.3 -7.6 -9.9 -19.8 -21.2 -27.2 -25.1 -6.1 -3.3 -16.4 -7.2 -18.7 -7.2 -0.9 0 0.4 4.9 3.5 14.3 2.6 7.8 6.5 21.3 8.6 29.9 3.9 15.8 3.9 15.8 8.4 15.3 2.5 -0.3 12.6 -1 22.5 -1.6 z  m -324 -130.7 c 5.5 -2.2 16.8 -6.3 25 -9.2 30.3 -10.5 49 -21.5 65.4 -38.5 17.4 -18 26.3 -36.4 30.7 -63.3 1.7 -10.9 1.9 -35 0.4 -45 -1.5 -9.7 -5 -21.9 -6.5 -23.2 -1.1 -0.9 -3.4 0.3 -10.4 4.9 -13.1 8.8 -27.8 16.8 -61.1 33.3 -22.3 11.1 -31.6 16.2 -38.3 21.3 -15.4 11.7 -26 26.1 -31.6 43.1 -3.5 10.4 -5.5 25.9 -4.6 34.8 1.1 10.8 3.9 26.6 4.7 26.6 0.4 0 0.8 -0.6 0.8 -1.4 0 -0.7 2.9 -7.1 6.5 -14.2 11.1 -22.2 28.5 -42.6 49.9 -58.6 8.4 -6.3 24.7 -15.9 29.1 -17.2 1.1 -0.3 -2.5 4 -8 9.7 -21.1 21.5 -37.8 44 -48.9 65.5 -6.5 12.8 -16 36.6 -14.3 35.9 0.7 -0.3 5.7 -2.3 11.2 -4.5 z " style="fill: rgb(255, 255, 255);"/><path d="M 340 607 c -24.6 -2 -34 -4.6 -40 -11.2 -1.7 -1.8 -3 -3.5 -3 -3.8 0 -0.3 3.9 0 8.8 0.7 13.7 2 42.8 4.4 65.2 5.3 21.1 0.8 58.1 0.5 66 -0.6 6.9 -1 4.3 0.4 -6.8 3.6 -20.5 5.9 -22.8 6.2 -52.2 6.5 -15.1 0.2 -32.2 -0.1 -38 -0.5 z " style="fill: rgb(255, 255, 255);"/><path d="M 582.4 721 c -14.1 -9 -19.5 -46.2 -11.4 -77.5 6.3 -24.2 18.7 -35.9 30.1 -28.2 16.7 11.2 21.3 63 8 91.2 -6.7 14.4 -17.7 20.3 -26.7 14.5 z  m 14 -21.8 c 12.7 -11.6 13.7 -52.4 1.4 -62.7 -3.9 -3.3 -6 -3.1 -10.1 0.5 -8.6 7.5 -12.9 29.7 -9.2 47.3 3.1 14.8 10.8 21.2 17.9 14.9 z " style="fill: rgb(255, 255, 255);"/><path d="M755.6 452.3 C 755.6 458 751 462.7 745.3 462.7 739.5 462.7 734.9 458 734.9 452.3 734.9 446.6 739.5 441.9 745.3 441.9 751 441.9 755.6 446.6 755.6 452.3 Z M741.4 462 " style="fill: rgb(255, 255, 255);"/><path d="M699 401.3 C 699 411.1 691.1 419 681.3 419 671.6 419 663.7 411.1 663.7 401.3 663.7 391.6 671.6 383.6 681.3 383.6 691.1 383.6 699 391.6 699 401.3 Z M675 418.3 " style="fill: rgb(255, 255, 255);"/><path d="M614.7 359.3 C 614.7 371.5 604.8 381.4 592.6 381.4 580.4 381.4 570.5 371.5 570.5 359.3 570.5 347 580.4 337.1 592.6 337.1 604.8 337.1 614.7 347 614.7 359.3 Z M582.2 378.9 " style="fill: rgb(255, 255, 255);"/><path d="M707 331 C 707 337 702.1 341.9 696 341.9 690 341.9 685.1 337 685.1 331 685.1 324.9 690 320 696 320 702.1 320 707 324.9 707 331 Z M688.9 339.2 " style="fill: rgb(255, 255, 255);"/><path d="M636.9 294.9 C 636.9 302.5 630.8 308.6 623.2 308.6 615.6 308.6 609.4 302.5 609.4 294.9 609.4 287.3 615.6 281.1 623.2 281.1 630.8 281.1 636.9 287.3 636.9 294.9 Z M617.2 307.4 " style="fill: rgb(255, 255, 255);"/></g></g></g></svg>